<svg xmlns="http://www.w3.org/2000/svg" viewBox="0 0 36.15 35.99"><title>Vectores Formulario</title><g id="ELEMENTS"><path fill='#aeaeae' d="M23.63,13a.82.82,0,0,0-.57-.24.8.8,0,0,0-.57.24l-5.37,5.37-2.79-2.79a.81.81,0,0,0-1.14,0l-.83.84a.76.76,0,0,0-.24.57.78.78,0,0,0,.24.57l4.18,4.19a.83.83,0,0,0,1.15,0l6.77-6.78a.8.8,0,0,0,0-1.14Z"/><path fill='#aeaeae' d="M27,.09H9.15A9.13,9.13,0,0,0,0,9.22V27a9.13,9.13,0,0,0,9.13,9.13H27A9.13,9.13,0,0,0,36.09,27V9.22A9.13,9.13,0,0,0,27,.09ZM26.79,24.3a15.88,15.88,0,0,1-8.54,6.16l-.19,0-.19,0A15.89,15.89,0,0,1,9.32,24.3C6,19.43,7.27,9.64,7.33,9.23a.8.8,0,0,1,.58-.67L17.84,5.8a.79.79,0,0,1,.43,0L28.2,8.56a.83.83,0,0,1,.59.67C28.84,9.64,30.16,19.43,26.79,24.3Z"/></g></svg>