<?xml version="1.0" encoding="utf-8"?>
<!-- Generator: Adobe Illustrator 23.0.1, SVG Export Plug-In . SVG Version: 6.00 Build 0)  -->
<svg version="1.1" id="Capa_2" xmlns="http://www.w3.org/2000/svg" xmlns:xlink="http://www.w3.org/1999/xlink" x="0px" y="0px"
	 viewBox="0 0 135 40" style="enable-background:new 0 0 135 40;" xml:space="preserve">
<style type="text/css">
	.st0{fill:#B6B6B6;}
	.st1{fill:#FFFFFF;}
	.st2{fill-rule:evenodd;clip-rule:evenodd;fill:#C8102E;}
</style>
<g>
	<g>
		<g>
			<path class="st0" d="M125.5,0.1H9.5c-0.4,0-0.7,0-1.1,0c-0.3,0-0.6,0-0.9,0c-0.7,0-1.3,0.1-2,0.2C4.8,0.4,4.2,0.6,3.6,0.9
				C3,1.2,2.5,1.6,2,2C1.5,2.5,1.1,3,0.8,3.6C0.5,4.2,0.3,4.8,0.2,5.5C0.1,6.1,0,6.8,0,7.5c0,0.3,0,0.6,0,0.9c0,0.4,0,0.7,0,1.1
				v21.1c0,0.4,0,0.7,0,1.1c0,0.3,0,0.6,0,0.9c0,0.7,0.1,1.3,0.2,2c0.1,0.7,0.3,1.3,0.6,1.9C1.1,37,1.5,37.5,2,38
				c0.5,0.5,1,0.9,1.6,1.2c0.6,0.3,1.2,0.5,1.9,0.6c0.7,0.1,1.3,0.2,2,0.2c0.3,0,0.6,0,0.9,0c0.4,0,0.7,0,1.1,0h115.9
				c0.4,0,0.7,0,1.1,0c0.3,0,0.6,0,0.9,0c0.7,0,1.3-0.1,2-0.2c0.7-0.1,1.3-0.3,1.9-0.6c0.6-0.3,1.1-0.7,1.6-1.2
				c0.5-0.5,0.9-1,1.2-1.6c0.3-0.6,0.5-1.2,0.6-1.9c0.1-0.7,0.2-1.3,0.2-2c0-0.3,0-0.6,0-0.9c0-0.4,0-0.7,0-1.1V9.4
				c0-0.4,0-0.7,0-1.1c0-0.3,0-0.6,0-0.9c0-0.7-0.1-1.3-0.2-2c-0.1-0.7-0.3-1.3-0.6-1.9C133.9,3,133.5,2.5,133,2
				c-0.5-0.5-1-0.9-1.6-1.2c-0.6-0.3-1.2-0.5-1.9-0.6c-0.7-0.1-1.3-0.2-2-0.2c-0.3,0-0.6,0-0.9,0C126.2,0.1,125.8,0.1,125.5,0.1
				L125.5,0.1z"/>
			<path d="M8.4,39.1c-0.3,0-0.6,0-0.9,0c-0.6,0-1.2,0-1.9-0.2c-0.6-0.1-1.2-0.3-1.7-0.5c-0.5-0.3-1-0.6-1.4-1
				c-0.4-0.4-0.8-0.9-1-1.4c-0.3-0.5-0.4-1-0.5-1.6c-0.1-0.7-0.2-1.3-0.2-1.8c0-0.2,0-0.9,0-0.9V8.4c0,0,0-0.7,0-0.9
				c0-0.5,0-1.2,0.2-1.8C1.2,5,1.3,4.5,1.6,4c0.3-0.5,0.6-1,1-1.4C3,2.2,3.5,1.9,4,1.6c0.5-0.3,1.1-0.4,1.7-0.5C6.3,1,7,0.9,7.5,0.9
				l0.9,0h118.1l0.9,0c0.5,0,1.2,0,1.9,0.2c0.6,0.1,1.1,0.3,1.7,0.5c0.5,0.3,1,0.6,1.4,1c0.4,0.4,0.8,0.9,1,1.4
				c0.3,0.5,0.4,1,0.5,1.6c0.1,0.6,0.2,1.3,0.2,1.9c0,0.3,0,0.6,0,0.9c0,0.4,0,0.7,0,1.1v21.1c0,0.4,0,0.7,0,1.1c0,0.3,0,0.6,0,0.9
				c0,0.6-0.1,1.2-0.2,1.8c-0.1,0.6-0.3,1.1-0.5,1.6c-0.3,0.5-0.6,1-1,1.4c-0.4,0.4-0.9,0.7-1.4,1c-0.5,0.3-1,0.4-1.7,0.5
				c-0.6,0.1-1.3,0.1-1.9,0.2c-0.3,0-0.6,0-0.9,0l-1.1,0L8.4,39.1z"/>
		</g>
	</g>
</g>
<g>
	<path class="st1" d="M50.3,27h-4.6l-1.1,3.1h-2l4.5-11.5H49l4.6,11.5h-2.1L50.3,27z M46.3,25.4h3.4l-1.2-3.3
		c-0.2-0.5-0.3-1-0.5-1.5c-0.1,0.5-0.3,1-0.5,1.5L46.3,25.4z"/>
	<path class="st1" d="M54.5,23.6c0-0.6,0-1.3-0.1-2.1h1.8c0.1,0.4,0.1,0.7,0.1,1.1c0.8-0.8,1.6-1.2,2.6-1.2c0.6,0,1.1,0.1,1.6,0.4
		c0.5,0.3,0.9,0.7,1.2,1.4c0.3,0.6,0.4,1.4,0.4,2.4c0,1-0.2,1.9-0.5,2.6c-0.3,0.7-0.8,1.2-1.4,1.6c-0.6,0.4-1.3,0.5-2.1,0.5
		c-0.6,0-1.2-0.1-1.7-0.3v3.5l-2,0.2V23.6z M59.7,28c0.4-0.5,0.6-1.3,0.6-2.4c0-1-0.2-1.7-0.5-2.1c-0.3-0.4-0.8-0.6-1.3-0.6
		c-0.4,0-0.7,0.1-1.1,0.3c-0.3,0.2-0.6,0.4-0.9,0.7v4.6c0.2,0.1,0.4,0.2,0.7,0.2c0.3,0.1,0.5,0.1,0.8,0.1
		C58.7,28.8,59.3,28.5,59.7,28z"/>
	<path class="st1" d="M63.6,23.6c0-0.6,0-1.3-0.1-2.1h1.8c0.1,0.4,0.1,0.7,0.1,1.1c0.8-0.8,1.6-1.2,2.6-1.2c0.6,0,1.1,0.1,1.6,0.4
		c0.5,0.3,0.9,0.7,1.2,1.4c0.3,0.6,0.4,1.4,0.4,2.4c0,1-0.2,1.9-0.5,2.6c-0.3,0.7-0.8,1.2-1.4,1.6c-0.6,0.4-1.3,0.5-2.1,0.5
		c-0.6,0-1.2-0.1-1.7-0.3v3.5l-2,0.2V23.6z M68.7,28c0.4-0.5,0.6-1.3,0.6-2.4c0-1-0.2-1.7-0.5-2.1c-0.3-0.4-0.8-0.6-1.3-0.6
		c-0.4,0-0.7,0.1-1.1,0.3c-0.3,0.2-0.6,0.4-0.9,0.7v4.6c0.2,0.1,0.4,0.2,0.7,0.2c0.3,0.1,0.5,0.1,0.8,0.1
		C67.7,28.8,68.3,28.5,68.7,28z"/>
	<path class="st1" d="M75,29.6c-0.8-0.5-1.5-1.1-2-2c-0.5-0.9-0.7-1.9-0.7-3.1c0-1.3,0.3-2.4,0.8-3.3c0.5-0.9,1.2-1.6,2.1-2
		c0.9-0.5,1.9-0.7,3-0.7c0.7,0,1.3,0.1,1.9,0.2c0.6,0.1,1.2,0.3,1.7,0.6l-0.5,1.5c-1-0.5-2-0.7-3-0.7c-0.8,0-1.5,0.2-2.1,0.5
		c-0.6,0.3-1.1,0.8-1.4,1.5c-0.3,0.7-0.5,1.5-0.5,2.4c0,0.8,0.1,1.6,0.4,2.2c0.3,0.6,0.7,1.1,1.2,1.5c0.6,0.4,1.3,0.6,2.1,0.6
		c0.4,0,0.8,0,1.1-0.1c0.4-0.1,0.7-0.2,1.1-0.3V26h-2.7v-1.5h4.6v4.9c-0.7,0.3-1.3,0.5-2.1,0.7c-0.7,0.2-1.4,0.2-2.2,0.2
		C76.9,30.3,75.9,30,75,29.6z"/>
	<path class="st1" d="M89.4,30.1c-0.1-0.3-0.1-0.7-0.1-1.1c-0.3,0.4-0.7,0.7-1.2,0.9c-0.5,0.3-1,0.4-1.6,0.4c-0.5,0-0.9-0.1-1.3-0.3
		c-0.4-0.2-0.7-0.5-1-0.9c-0.2-0.4-0.4-0.9-0.4-1.4c0-0.8,0.3-1.5,0.9-2c0.6-0.5,1.6-0.7,3-0.7c0.5,0,1,0,1.6,0.1v-0.2
		c0-0.8-0.2-1.3-0.5-1.6c-0.3-0.3-0.8-0.5-1.4-0.5c-0.4,0-0.9,0.1-1.3,0.2c-0.5,0.1-0.9,0.3-1.3,0.4L84.4,22
		c0.4-0.2,0.8-0.3,1.4-0.4c0.6-0.1,1.2-0.2,1.8-0.2c0.7,0,1.4,0.1,1.9,0.3c0.5,0.2,0.9,0.6,1.2,1.2c0.3,0.5,0.4,1.3,0.4,2.2v3.4
		c0,0.4,0,0.9,0.1,1.6H89.4z M88.2,28.5c0.4-0.2,0.7-0.4,1-0.7v-1.6c-0.5-0.1-1-0.1-1.3-0.1c-0.8,0-1.4,0.1-1.7,0.4
		c-0.3,0.3-0.5,0.6-0.5,1.1c0,0.4,0.1,0.7,0.3,0.9c0.2,0.2,0.5,0.3,0.9,0.3C87.4,28.8,87.8,28.7,88.2,28.5z"/>
	<path class="st1" d="M92.9,28V17.9l2-0.2v10c0,0.4,0.1,0.6,0.2,0.8c0.1,0.2,0.3,0.2,0.6,0.2c0.1,0,0.3,0,0.5-0.1l0.2,1.4
		c-0.2,0.1-0.4,0.1-0.7,0.2c-0.3,0-0.5,0.1-0.8,0.1C93.6,30.3,92.9,29.5,92.9,28z"/>
	<path class="st1" d="M97.8,28V17.9l2-0.2v10c0,0.4,0.1,0.6,0.2,0.8c0.1,0.2,0.3,0.2,0.6,0.2c0.1,0,0.3,0,0.5-0.1l0.2,1.4
		c-0.2,0.1-0.4,0.1-0.7,0.2c-0.3,0-0.5,0.1-0.8,0.1C98.4,30.3,97.8,29.5,97.8,28z"/>
	<path class="st1" d="M109.4,26.1h-5.6c0.1,1.8,0.9,2.7,2.6,2.7c0.4,0,0.8,0,1.2-0.1c0.4-0.1,0.8-0.2,1.2-0.4l0.4,1.3
		c-1,0.5-2,0.7-3.2,0.7c-0.9,0-1.7-0.2-2.3-0.5c-0.6-0.3-1.1-0.8-1.4-1.5c-0.3-0.6-0.5-1.4-0.5-2.3c0-0.9,0.2-1.8,0.5-2.5
		c0.3-0.7,0.8-1.2,1.4-1.6c0.6-0.4,1.3-0.5,2.1-0.5c0.8,0,1.5,0.2,2,0.6c0.5,0.4,0.9,0.9,1.2,1.5c0.3,0.6,0.4,1.3,0.4,2.1V26.1z
		 M107.5,24.8c0-0.7-0.2-1.2-0.5-1.5c-0.3-0.3-0.7-0.5-1.2-0.5c-0.5,0-0.9,0.2-1.2,0.5c-0.3,0.3-0.5,0.9-0.6,1.5H107.5z"/>
	<path class="st1" d="M111,23.7c0-0.5,0-1.2-0.1-2.2h1.8c0,0.2,0.1,0.5,0.1,0.9c0,0.3,0,0.6,0.1,0.8c0.2-0.4,0.5-0.7,0.7-1
		c0.2-0.3,0.5-0.5,0.8-0.6c0.3-0.2,0.6-0.2,1-0.2c0.3,0,0.6,0,0.8,0.1l-0.2,1.7c-0.2-0.1-0.4-0.1-0.6-0.1c-0.5,0-0.9,0.1-1.2,0.4
		c-0.3,0.2-0.7,0.6-1.1,1.2v5.5h-2V23.7z"/>
	<path class="st1" d="M117.3,33.6c-0.3-0.1-0.5-0.1-0.7-0.2L117,32c0.1,0,0.3,0.1,0.5,0.1c0.2,0,0.4,0.1,0.6,0.1
		c0.9,0,1.5-0.6,2-1.7l0.1-0.3l-3.2-8.7h2.1l1.6,4.8c0.3,0.8,0.4,1.5,0.5,1.9c0.1-0.6,0.3-1.2,0.5-1.9l1.6-4.9h2l-3.2,8.7
		c-0.3,0.8-0.6,1.5-1,2c-0.3,0.5-0.8,0.9-1.2,1.1c-0.5,0.2-1,0.4-1.7,0.4C117.9,33.7,117.6,33.7,117.3,33.6z"/>
</g>
<g>
	<path class="st2" d="M28,7.3H16.9c-5.2,0-7.1,1.9-7.1,7.1v11.1c0,5.2,1.9,7.1,7.1,7.1H28c5.2,0,7.1-1.9,7.1-7.1l0-11.1
		C35.1,9.2,33.2,7.3,28,7.3z"/>
	<path class="st1" d="M14.7,20h0.7v3.3h-0.7V22h-1.5v1.3h-0.7V20h0.7v1.3h1.5V20z M18.5,21.9c0,0.5-0.3,0.8-0.8,0.8
		c-0.5,0-0.8-0.3-0.8-0.9V20h-0.7v1.9c0,0.9,0.5,1.5,1.4,1.5c0.9,0,1.4-0.5,1.4-1.5V20h-0.7V21.9z M26.3,22.3L25.6,20H25l-0.8,2.3
		L23.5,20h-0.7l1.2,3.3h0.6l0.8-2.2l0.8,2.2h0.6l1.2-3.3h-0.7L26.3,22.3z M29,21.9h1.2v-0.6H29v-0.7h1.8V20h-2.4v3.3h2.5v-0.6H29
		V21.9z M31.6,23.3h0.7V20h-0.7V23.3z M20.5,22.6l-0.3,0.7h-0.7L21,20h0.6l1.5,3.3h-0.7l-0.3-0.7H20.5z M20.8,22h1l-0.5-1.2L20.8,22
		z"/>
	<path class="st1" d="M22.4,15.8c-2.3,0-4.2-1.9-4.2-4.2h0.6c0,2,1.6,3.6,3.6,3.6c2,0,3.6-1.6,3.6-3.6h0.6
		C26.6,13.9,24.7,15.8,22.4,15.8z"/>
</g>
<g>
	<path class="st1" d="M42.5,7.3h3.5L46,8.2h-2.4v1.7h2.3v0.8h-2.3v1.8h2.5L46,13.4h-3.5V7.3z"/>
	<path class="st1" d="M48.5,10.3l-1.9-2.9h1.2l1.3,2.2l1.3-2.2h1.1l-1.9,2.9l2,3.1h-1.2L49.1,11l-1.5,2.4h-1.1L48.5,10.3z"/>
	<path class="st1" d="M52.4,7.3h1.6c0.8,0,1.3,0.2,1.8,0.5c0.4,0.3,0.6,0.8,0.6,1.3c0,0.4-0.1,0.7-0.3,1c-0.2,0.3-0.4,0.5-0.8,0.7
		c-0.3,0.2-0.7,0.2-1.1,0.2c-0.2,0-0.5,0-0.8-0.1v2.3h-1V7.3z M55.1,10c0.2-0.2,0.3-0.5,0.3-0.9c0-0.4-0.1-0.6-0.3-0.8
		c-0.2-0.2-0.6-0.2-1-0.2h-0.6v2.1c0.3,0,0.5,0.1,0.6,0.1C54.5,10.3,54.8,10.2,55.1,10z"/>
	<path class="st1" d="M57.4,7.3h1v5.1H61l-0.1,0.9h-3.4V7.3z"/>
	<path class="st1" d="M62.8,13.1c-0.4-0.3-0.8-0.6-1-1.1c-0.2-0.5-0.3-1-0.3-1.6c0-0.6,0.1-1.2,0.4-1.7c0.2-0.5,0.6-0.8,1.1-1.1
		c0.5-0.3,1-0.4,1.7-0.4c0.6,0,1.1,0.1,1.6,0.4c0.4,0.3,0.8,0.6,1,1.1c0.2,0.5,0.3,1,0.3,1.6c0,0.6-0.1,1.2-0.4,1.7
		c-0.3,0.5-0.6,0.8-1.1,1.1c-0.5,0.3-1,0.4-1.6,0.4C63.8,13.5,63.3,13.3,62.8,13.1z M65.5,12.3c0.3-0.2,0.5-0.5,0.7-0.8
		c0.1-0.3,0.2-0.7,0.2-1.2c0-0.4-0.1-0.8-0.2-1.2c-0.1-0.3-0.3-0.6-0.6-0.8c-0.3-0.2-0.6-0.3-1.1-0.3c-0.4,0-0.8,0.1-1.1,0.3
		c-0.3,0.2-0.5,0.5-0.7,0.8c-0.1,0.3-0.2,0.7-0.2,1.1c0,0.4,0.1,0.8,0.2,1.2c0.1,0.3,0.4,0.6,0.6,0.8c0.3,0.2,0.6,0.3,1.1,0.3
		C64.9,12.6,65.2,12.5,65.5,12.3z M63.8,6.9l1.1-1.3l1.1,0.1L64.4,7L63.8,6.9z"/>
	<path class="st1" d="M68.6,7.3h1.9c0.7,0,1.2,0.1,1.6,0.4c0.4,0.3,0.5,0.7,0.5,1.2c0,0.3-0.1,0.6-0.2,0.8c-0.1,0.2-0.3,0.4-0.5,0.6
		c-0.2,0.2-0.4,0.3-0.6,0.3l1.9,2.7H72L70.4,11h-0.8v2.4h-1V7.3z M70.2,10.2c0.3,0,0.5,0,0.7-0.1c0.2-0.1,0.3-0.2,0.5-0.4
		c0.1-0.2,0.2-0.4,0.2-0.6c0-0.3-0.1-0.5-0.3-0.7c-0.2-0.1-0.5-0.2-0.8-0.2h-0.8v2.1H70.2z"/>
	<path class="st1" d="M77.3,11.8h-2.4l-0.6,1.6h-1.1l2.4-6h1l2.4,6h-1.1L77.3,11.8z M75.2,10.9H77l-0.6-1.7
		c-0.1-0.2-0.2-0.5-0.3-0.8c-0.1,0.3-0.2,0.5-0.3,0.8L75.2,10.9z"/>
	<path class="st1" d="M79.7,7.3h1v5.1h2.5l-0.1,0.9h-3.4V7.3z"/>
	<path class="st1" d="M85.1,13.1c-0.4-0.3-0.8-0.6-1-1.1c-0.2-0.5-0.3-1-0.3-1.6c0-0.6,0.1-1.2,0.4-1.7c0.2-0.5,0.6-0.8,1.1-1.1
		c0.5-0.3,1-0.4,1.7-0.4c0.6,0,1.1,0.1,1.6,0.4c0.4,0.3,0.8,0.6,1,1.1c0.2,0.5,0.3,1,0.3,1.6c0,0.6-0.1,1.2-0.4,1.7
		c-0.3,0.5-0.6,0.8-1.1,1.1c-0.5,0.3-1,0.4-1.6,0.4C86.1,13.5,85.6,13.3,85.1,13.1z M87.8,12.3c0.3-0.2,0.5-0.5,0.7-0.8
		c0.1-0.3,0.2-0.7,0.2-1.2c0-0.4-0.1-0.8-0.2-1.2c-0.1-0.3-0.3-0.6-0.6-0.8c-0.3-0.2-0.6-0.3-1.1-0.3c-0.4,0-0.8,0.1-1.1,0.3
		c-0.3,0.2-0.5,0.5-0.7,0.8c-0.1,0.3-0.2,0.7-0.2,1.1c0,0.4,0.1,0.8,0.2,1.2c0.1,0.3,0.4,0.6,0.6,0.8c0.3,0.2,0.6,0.3,1.1,0.3
		C87.2,12.6,87.5,12.5,87.8,12.3z"/>
	<path class="st1" d="M93.5,7.3h3.5L97,8.2h-2.4v1.7h2.3v0.8h-2.3v1.8h2.5L97,13.4h-3.5V7.3z"/>
	<path class="st1" d="M98.3,7.3h1.2l3,4.7c0-0.4,0-0.9,0-1.2V7.3h1v6h-1.2l-3-4.7c0,0.5,0,1,0,1.4v3.3h-1V7.3z"/>
</g>
</svg>
