<?xml version="1.0" encoding="utf-8"?>
<!-- Generator: Adobe Illustrator 23.0.1, SVG Export Plug-In . SVG Version: 6.00 Build 0)  -->
<svg version="1.1" id="Capa_3" xmlns="http://www.w3.org/2000/svg" xmlns:xlink="http://www.w3.org/1999/xlink" x="0px" y="0px"
	 viewBox="0 0 135 40" style="enable-background:new 0 0 135 40;" xml:space="preserve">
<style type="text/css">
	.st0{fill:#A6A6A6;}
	.st1{fill:#FFFFFF;}
</style>
<g>
	<g>
		<path class="st0" d="M124.2,0H10.8c-0.4,0-0.8,0-1.2,0c-0.3,0-0.7,0-1,0C7.7,0,7,0.1,6.2,0.2C5.5,0.3,4.8,0.5,4.1,0.8
			C3.4,1.1,2.8,1.5,2.3,2c-0.5,0.5-1,1-1.3,1.6C0.6,4.2,0.4,4.9,0.2,5.5C0.1,6.2,0,6.9,0,7.5c0,0.3,0,0.6,0,0.9c0,0.4,0,0.7,0,1.1
			v20.9c0,0.4,0,0.7,0,1.1c0,0.3,0,0.6,0,0.9c0,0.7,0.1,1.3,0.2,2c0.1,0.7,0.4,1.3,0.7,1.9C1.3,37,1.7,37.5,2.3,38
			c0.5,0.5,1.2,0.9,1.8,1.2c0.7,0.3,1.4,0.5,2.1,0.6C7,39.9,7.7,40,8.5,40c0.3,0,0.7,0,1,0c0.4,0,0.8,0,1.2,0h113.5
			c0.4,0,0.8,0,1.2,0c0.3,0,0.7,0,1,0c0.8,0,1.5-0.1,2.3-0.2c0.8-0.1,1.5-0.3,2.2-0.6c0.7-0.3,1.3-0.7,1.8-1.2c0.5-0.5,1-1,1.3-1.6
			c0.3-0.6,0.6-1.2,0.7-1.9c0.1-0.7,0.2-1.3,0.2-2c0-0.3,0-0.6,0-0.9c0-0.4,0-0.7,0-1.1V9.5c0-0.4,0-0.7,0-1.1c0-0.3,0-0.6,0-0.9
			c0-0.7-0.1-1.3-0.2-2c-0.1-0.7-0.4-1.3-0.7-1.9c-0.3-0.6-0.8-1.1-1.3-1.6c-0.5-0.5-1.2-0.9-1.8-1.2c-0.7-0.3-1.4-0.5-2.2-0.6
			C128,0.1,127.3,0,126.5,0c-0.3,0-0.7,0-1,0C125.1,0,124.7,0,124.2,0L124.2,0z"/>
		<path d="M9.5,39.1c-0.3,0-0.7,0-1,0c-0.6,0-1.4,0-2.1-0.2c-0.7-0.1-1.3-0.3-1.9-0.5c-0.6-0.3-1.1-0.6-1.6-1
			C2.5,37,2.1,36.5,1.8,36c-0.3-0.5-0.5-1-0.6-1.7C1.1,33.7,1,33,1,32.5c0-0.2,0-0.9,0-0.9V8.4c0,0,0-0.7,0-0.9C1,7,1.1,6.3,1.2,5.7
			C1.3,5.1,1.5,4.5,1.8,4c0.3-0.5,0.7-1,1.1-1.4c0.5-0.4,1-0.8,1.6-1c0.6-0.3,1.2-0.4,1.9-0.5c0.8-0.1,1.5-0.2,2.1-0.2l1,0h115.9
			l1,0c0.6,0,1.3,0,2.1,0.2c0.7,0.1,1.3,0.3,1.9,0.5c0.6,0.3,1.1,0.6,1.6,1c0.5,0.4,0.8,0.9,1.2,1.4c0.3,0.5,0.5,1.1,0.6,1.6
			c0.1,0.6,0.2,1.3,0.2,1.9c0,0.3,0,0.6,0,0.9c0,0.4,0,0.7,0,1.1v20.9c0,0.4,0,0.7,0,1.1c0,0.3,0,0.6,0,0.9c0,0.6-0.1,1.2-0.2,1.9
			c-0.1,0.6-0.3,1.2-0.6,1.7c-0.3,0.5-0.7,1-1.1,1.4c-0.5,0.4-1,0.8-1.6,1c-0.6,0.3-1.2,0.4-1.9,0.5c-0.7,0.1-1.5,0.1-2.1,0.2
			c-0.3,0-0.7,0-1,0l-1.2,0L9.5,39.1z"/>
	</g>
</g>
<g>
	<g id="XMLID_27_">
		<g id="XMLID_28_">
			<g id="XMLID_29_">
				<path id="XMLID_31_" class="st1" d="M32.5,20.3c0-2.8,2.3-4.1,2.4-4.2c-1.3-1.9-3.3-2.1-4-2.2c-1.7-0.2-3.3,1-4.2,1
					c-0.9,0-2.2-1-3.6-1c-1.8,0-3.5,1.1-4.5,2.7c-1.9,3.3-0.5,8.3,1.4,11c0.9,1.3,2,2.8,3.4,2.8c1.4-0.1,1.9-0.9,3.6-0.9
					c1.7,0,2.1,0.9,3.6,0.9c1.5,0,2.4-1.3,3.3-2.7c1.1-1.5,1.5-3,1.5-3.1C35.4,24.7,32.6,23.6,32.5,20.3z"/>
				<path id="XMLID_30_" class="st1" d="M29.8,12.2c0.7-0.9,1.3-2.2,1.1-3.5c-1.1,0-2.4,0.7-3.2,1.7c-0.7,0.8-1.3,2.1-1.1,3.4
					C27.8,13.8,29,13.1,29.8,12.2z"/>
			</g>
		</g>
		<g>
			<path class="st1" d="M50.1,27.1h-4.7l-1.1,3.4h-2l4.5-12.4h2.1l4.5,12.4h-2L50.1,27.1z M45.8,25.6h3.8l-1.8-5.4h-0.1L45.8,25.6z"
				/>
			<path class="st1" d="M62.9,26c0,2.8-1.5,4.6-3.8,4.6c-1.3,0-2.3-0.6-2.8-1.6h0v4.5h-1.9v-12h1.8v1.5h0c0.5-1,1.6-1.6,2.9-1.6
				C61.4,21.3,62.9,23.2,62.9,26z M61,26c0-1.8-0.9-3-2.4-3c-1.4,0-2.4,1.2-2.4,3c0,1.8,1,3,2.4,3C60.1,29,61,27.8,61,26z"/>
			<path class="st1" d="M72.9,26c0,2.8-1.5,4.6-3.8,4.6c-1.3,0-2.3-0.6-2.8-1.6h0v4.5h-1.9v-12h1.8v1.5h0c0.5-1,1.6-1.6,2.9-1.6
				C71.4,21.3,72.9,23.2,72.9,26z M71,26c0-1.8-0.9-3-2.4-3c-1.4,0-2.4,1.2-2.4,3c0,1.8,1,3,2.4,3C70,29,71,27.8,71,26z"/>
			<path class="st1" d="M79.5,27c0.1,1.2,1.3,2,3,2c1.6,0,2.7-0.8,2.7-1.9c0-1-0.7-1.5-2.3-1.9l-1.6-0.4c-2.3-0.6-3.3-1.6-3.3-3.3
				c0-2.1,1.9-3.6,4.5-3.6c2.6,0,4.4,1.5,4.5,3.6H85c-0.1-1.2-1.1-2-2.6-2s-2.5,0.8-2.5,1.9c0,0.9,0.7,1.4,2.3,1.8l1.4,0.3
				c2.5,0.6,3.6,1.6,3.6,3.4c0,2.3-1.9,3.8-4.8,3.8c-2.8,0-4.6-1.4-4.7-3.7H79.5z"/>
			<path class="st1" d="M91.1,19.3v2.1h1.7v1.5h-1.7v5c0,0.8,0.3,1.1,1.1,1.1c0.2,0,0.5,0,0.6,0v1.5c-0.2,0.1-0.6,0.1-1,0.1
				c-1.8,0-2.5-0.7-2.5-2.4v-5.2h-1.3v-1.5h1.3v-2.1H91.1z"/>
			<path class="st1" d="M93.8,26c0-2.8,1.7-4.6,4.3-4.6c2.6,0,4.3,1.8,4.3,4.6c0,2.9-1.7,4.6-4.3,4.6C95.5,30.6,93.8,28.8,93.8,26z
				 M100.5,26c0-2-0.9-3.1-2.4-3.1S95.7,24,95.7,26c0,2,0.9,3.1,2.4,3.1S100.5,27.9,100.5,26z"/>
			<path class="st1" d="M104,21.4h1.8V23h0c0.3-1,1.1-1.6,2.2-1.6c0.3,0,0.5,0,0.6,0.1v1.7c-0.1-0.1-0.5-0.1-0.8-0.1
				c-1.2,0-1.9,0.8-1.9,2.1v5.4H104V21.4z"/>
			<path class="st1" d="M117.2,27.8c-0.2,1.6-1.9,2.8-3.9,2.8c-2.6,0-4.3-1.8-4.3-4.6c0-2.8,1.6-4.7,4.2-4.7c2.5,0,4.1,1.7,4.1,4.5
				v0.6h-6.4v0.1c0,1.5,1,2.6,2.4,2.6c1,0,1.8-0.5,2.1-1.3H117.2z M110.9,25.1h4.5c0-1.4-0.9-2.3-2.2-2.3
				C111.9,22.8,111,23.8,110.9,25.1z"/>
		</g>
	</g>
	<g id="XMLID_26_">
		<g>
			<path class="st1" d="M43.2,11.7c0-1.9,1-3.1,2.7-3.1c1.3,0,2.3,0.9,2.5,2.1h-0.9c-0.2-0.7-0.8-1.2-1.6-1.2
				c-1.1,0-1.7,0.9-1.7,2.3c0,1.4,0.7,2.3,1.7,2.3c0.8,0,1.4-0.4,1.6-1.1h0.9c-0.2,1.2-1.1,2-2.5,2C44.2,14.8,43.2,13.6,43.2,11.7z"
				/>
			<path class="st1" d="M49.4,12.4c0-1.5,0.8-2.3,2.1-2.3c1.3,0,2.1,0.9,2.1,2.3c0,1.5-0.8,2.3-2.1,2.3
				C50.2,14.8,49.4,13.9,49.4,12.4z M52.7,12.4c0-1-0.4-1.5-1.2-1.5c-0.8,0-1.2,0.6-1.2,1.5c0,1,0.4,1.6,1.2,1.6
				C52.3,14,52.7,13.4,52.7,12.4z"/>
			<path class="st1" d="M54.8,10.2h0.9v0.7h0.1c0.2-0.5,0.7-0.8,1.3-0.8c1,0,1.6,0.6,1.6,1.7v2.9h-0.9V12c0-0.7-0.3-1.1-1-1.1
				s-1.1,0.4-1.1,1.1v2.6h-0.9V10.2z"/>
			<path class="st1" d="M61.7,10.1c1,0,1.7,0.5,1.8,1.3h-0.9c-0.1-0.3-0.4-0.5-0.9-0.5c-0.5,0-0.9,0.2-0.9,0.6
				c0,0.3,0.2,0.4,0.7,0.6l0.7,0.2c0.9,0.2,1.3,0.6,1.3,1.2c0,0.8-0.8,1.4-1.9,1.4c-1.1,0-1.8-0.5-1.8-1.3h0.9
				c0.1,0.3,0.4,0.6,1,0.6c0.6,0,0.9-0.2,0.9-0.6c0-0.3-0.2-0.4-0.7-0.5l-0.8-0.2c-0.9-0.2-1.3-0.6-1.3-1.3
				C59.9,10.7,60.6,10.1,61.7,10.1z"/>
			<path class="st1" d="M64.6,9.4l1-1.4h1l-1.2,1.4H64.6z M64.7,10.2h0.9v4.5h-0.9V10.2z"/>
			<path class="st1" d="M67,15.1h0.9c0.1,0.3,0.5,0.5,1.1,0.5c0.7,0,1.2-0.4,1.2-0.9v-0.9h-0.1c-0.3,0.5-0.8,0.8-1.4,0.8
				c-1.1,0-1.9-0.9-1.9-2.2c0-1.4,0.7-2.3,1.9-2.3c0.6,0,1.2,0.3,1.4,0.8h0.1v-0.7H71v4.5c0,1-0.8,1.7-2.1,1.7
				C67.8,16.4,67.1,15.9,67,15.1z M70.2,12.4c0-0.9-0.5-1.5-1.2-1.5c-0.8,0-1.2,0.6-1.2,1.5c0,0.9,0.4,1.5,1.2,1.5
				C69.7,13.9,70.2,13.3,70.2,12.4z"/>
			<path class="st1" d="M76.2,14.7h-0.9V14h-0.1c-0.2,0.5-0.7,0.8-1.4,0.8c-1,0-1.6-0.6-1.6-1.7v-2.9h0.9v2.7c0,0.7,0.3,1.1,0.9,1.1
				c0.7,0,1.1-0.4,1.1-1.1v-2.6h0.9V14.7z"/>
			<path class="st1" d="M81.5,13.5c-0.2,0.8-0.9,1.3-2,1.3c-1.3,0-2.1-0.9-2.1-2.3c0-1.4,0.8-2.4,2.1-2.4c1.3,0,2,0.9,2,2.3v0.3
				h-3.2v0c0,0.8,0.5,1.3,1.2,1.3c0.5,0,0.9-0.2,1.1-0.5H81.5z M78.3,12h2.3c0-0.7-0.5-1.2-1.1-1.2C78.8,10.9,78.4,11.3,78.3,12z"/>
			<path class="st1" d="M82.7,8.4h0.9v6.3h-0.9V8.4z"/>
			<path class="st1" d="M84.9,12.4c0-1.5,0.8-2.3,2.1-2.3c1.3,0,2.1,0.9,2.1,2.3c0,1.5-0.8,2.3-2.1,2.3
				C85.7,14.8,84.9,13.9,84.9,12.4z M88.2,12.4c0-1-0.4-1.5-1.2-1.5c-0.8,0-1.2,0.6-1.2,1.5c0,1,0.4,1.6,1.2,1.6
				C87.8,14,88.2,13.4,88.2,12.4z"/>
			<path class="st1" d="M96.6,13.5c-0.2,0.8-0.9,1.3-2,1.3c-1.3,0-2.1-0.9-2.1-2.3c0-1.4,0.8-2.4,2.1-2.4c1.3,0,2,0.9,2,2.3v0.3
				h-3.2v0c0,0.8,0.5,1.3,1.2,1.3c0.5,0,0.9-0.2,1.1-0.5H96.6z M93.4,12h2.3c0-0.7-0.5-1.2-1.1-1.2C93.9,10.9,93.5,11.3,93.4,12z"/>
			<path class="st1" d="M97.8,10.2h0.9v0.7h0.1c0.2-0.5,0.7-0.8,1.3-0.8c1,0,1.6,0.6,1.6,1.7v2.9h-0.9V12c0-0.7-0.3-1.1-1-1.1
				s-1.1,0.4-1.1,1.1v2.6h-0.9V10.2z"/>
			<path class="st1" d="M109.3,13.5c-0.2,0.8-0.9,1.3-2,1.3c-1.3,0-2.1-0.9-2.1-2.3c0-1.4,0.8-2.4,2.1-2.4c1.3,0,2,0.9,2,2.3v0.3
				h-3.2v0c0,0.8,0.5,1.3,1.2,1.3c0.5,0,0.9-0.2,1.1-0.5H109.3z M106.1,12h2.3c0-0.7-0.5-1.2-1.1-1.2
				C106.6,10.9,106.2,11.3,106.1,12z"/>
			<path class="st1" d="M110.5,8.4h0.9v6.3h-0.9V8.4z"/>
		</g>
	</g>
</g>
</svg>
