<svg xmlns="http://www.w3.org/2000/svg" viewBox="0 0 135 40"><defs><style>.a{fill:#303030;}</style></defs><title>img_tecnologias_appleStore</title><path class="a" d="M29.24,19.78A5.8,5.8,0,0,1,32,14.92a5.94,5.94,0,0,0-4.68-2.53c-2-.21-3.87,1.18-4.88,1.18s-2.57-1.16-4.23-1.12A6.23,6.23,0,0,0,13,15.64c-2.27,3.92-.58,9.69,1.6,12.86,1.09,1.55,2.36,3.29,4,3.23s2.23-1,4.19-1,2.51,1,4.21,1,2.84-1.56,3.89-3.13a12.83,12.83,0,0,0,1.78-3.62A5.6,5.6,0,0,1,29.24,19.78Z"/><path class="a" d="M26,10.31a5.71,5.71,0,0,0,1.31-4.09,5.81,5.81,0,0,0-3.76,1.94,5.43,5.43,0,0,0-1.34,3.94A4.8,4.8,0,0,0,26,10.31Z"/><path class="a" d="M52.76,31.5H50.48l-1.24-3.91H44.92L43.73,31.5H41.52L45.8,18.2h2.65ZM48.87,26l-1.12-3.48q-.18-.53-.67-2.51h0q-.2.85-.63,2.51L45.29,26Z"/><path class="a" d="M63.77,26.59a5.45,5.45,0,0,1-1.32,3.87,3.87,3.87,0,0,1-2.94,1.26,2.94,2.94,0,0,1-2.72-1.36h0v5.05H54.61V25.07q0-1.54-.08-3.16h1.88l.12,1.52h0a3.79,3.79,0,0,1,6.07-.38A5.29,5.29,0,0,1,63.77,26.59Zm-2.17.08A4,4,0,0,0,61,24.36a2.18,2.18,0,0,0-1.86-.95,2.22,2.22,0,0,0-1.43.52,2.43,2.43,0,0,0-.84,1.37,2.79,2.79,0,0,0-.1.65v1.6a2.56,2.56,0,0,0,.64,1.77,2.13,2.13,0,0,0,1.67.72,2.18,2.18,0,0,0,1.88-.93A4.08,4.08,0,0,0,61.6,26.67Z"/><path class="a" d="M74.81,26.59a5.45,5.45,0,0,1-1.32,3.87,3.86,3.86,0,0,1-2.94,1.26,2.94,2.94,0,0,1-2.72-1.36h0v5.05H65.65V25.07q0-1.54-.08-3.16h1.88l.12,1.52h0a3.79,3.79,0,0,1,6.07-.38A5.3,5.3,0,0,1,74.81,26.59Zm-2.17.08A4,4,0,0,0,72,24.36a2.18,2.18,0,0,0-1.86-.95,2.22,2.22,0,0,0-1.43.52,2.42,2.42,0,0,0-.84,1.37,2.85,2.85,0,0,0-.1.65v1.6a2.57,2.57,0,0,0,.64,1.77,2.13,2.13,0,0,0,1.67.72A2.18,2.18,0,0,0,72,29.12,4.08,4.08,0,0,0,72.64,26.67Z"/><path class="a" d="M87.15,27.77A3.55,3.55,0,0,1,86,30.54a5.24,5.24,0,0,1-3.62,1.17,6.35,6.35,0,0,1-3.45-.83l.49-1.78a5.84,5.84,0,0,0,3.08.85,2.91,2.91,0,0,0,1.88-.54A1.78,1.78,0,0,0,85,27.95a1.85,1.85,0,0,0-.55-1.36,5.14,5.14,0,0,0-1.84-1q-3.5-1.3-3.49-3.82A3.38,3.38,0,0,1,80.36,19a4.83,4.83,0,0,1,3.26-1,6.46,6.46,0,0,1,3,.63l-.53,1.74a5.24,5.24,0,0,0-2.55-.61,2.58,2.58,0,0,0-1.76.55,1.58,1.58,0,0,0-.53,1.2,1.63,1.63,0,0,0,.61,1.3,6.91,6.91,0,0,0,1.94,1,6.57,6.57,0,0,1,2.53,1.62A3.38,3.38,0,0,1,87.15,27.77Z"/><path class="a" d="M94.2,23.51H91.85v4.66q0,1.78,1.24,1.78a3.79,3.79,0,0,0,.95-.1l.06,1.62a4.83,4.83,0,0,1-1.66.24,2.56,2.56,0,0,1-2-.77,3.78,3.78,0,0,1-.71-2.59V23.51h-1.4v-1.6h1.4V20.15l2.09-.63v2.39H94.2Z"/><path class="a" d="M104.8,26.63a5.26,5.26,0,0,1-1.26,3.63A4.51,4.51,0,0,1,100,31.72a4.29,4.29,0,0,1-3.36-1.4,5.1,5.1,0,0,1-1.25-3.53,5.21,5.21,0,0,1,1.29-3.65,4.47,4.47,0,0,1,3.48-1.42,4.38,4.38,0,0,1,3.4,1.4A5,5,0,0,1,104.8,26.63Zm-2.21.07a4.32,4.32,0,0,0-.57-2.28,2.11,2.11,0,0,0-1.91-1.15,2.14,2.14,0,0,0-2,1.15,4.4,4.4,0,0,0-.57,2.32A4.31,4.31,0,0,0,98.15,29,2.18,2.18,0,0,0,102,29,4.33,4.33,0,0,0,102.59,26.7Z"/><path class="a" d="M111.73,23.78a3.7,3.7,0,0,0-.67-.06,2,2,0,0,0-1.74.85,3.19,3.19,0,0,0-.53,1.9v5h-2.13l0-6.57q0-1.66-.08-3h1.86l.08,1.84h.06a3.28,3.28,0,0,1,1.07-1.52,2.58,2.58,0,0,1,1.54-.51,3.42,3.42,0,0,1,.53,0Z"/><path class="a" d="M121.27,26.25a5,5,0,0,1-.08,1h-6.4a2.78,2.78,0,0,0,.93,2.17,3.17,3.17,0,0,0,2.09.67,7.07,7.07,0,0,0,2.59-.45l.33,1.48a8,8,0,0,1-3.22.59A4.66,4.66,0,0,1,114,30.37a4.85,4.85,0,0,1-1.27-3.52,5.5,5.5,0,0,1,1.19-3.61,4.09,4.09,0,0,1,3.36-1.54,3.58,3.58,0,0,1,3.14,1.54A5.19,5.19,0,0,1,121.27,26.25Zm-2-.55a2.9,2.9,0,0,0-.41-1.64,1.86,1.86,0,0,0-1.7-.89,2,2,0,0,0-1.7.87,3.18,3.18,0,0,0-.63,1.66h4.44Z"/><path class="a" d="M47.35,7.08l-.23.84a2.91,2.91,0,0,0-1.24-.25,2.22,2.22,0,0,0-1.68.64,2.57,2.57,0,0,0-.66,1.88A2.57,2.57,0,0,0,44.14,12a2.2,2.2,0,0,0,1.7.66,3.06,3.06,0,0,0,1.29-.24l.19.83a3.94,3.94,0,0,1-1.66.28,3.16,3.16,0,0,1-2.34-.86,3.28,3.28,0,0,1-.89-2.43A3.23,3.23,0,0,1,45.83,6.8,3.29,3.29,0,0,1,47.35,7.08Z"/><path class="a" d="M53.14,11a2.59,2.59,0,0,1-.62,1.78,2.22,2.22,0,0,1-1.73.72,2.11,2.11,0,0,1-1.65-.69,2.51,2.51,0,0,1-.62-1.74,2.56,2.56,0,0,1,.63-1.79,2.2,2.2,0,0,1,1.71-.7,2.16,2.16,0,0,1,1.67.69A2.49,2.49,0,0,1,53.14,11Zm-1.09,0A2.13,2.13,0,0,0,51.77,10a1,1,0,0,0-.94-.56,1.05,1.05,0,0,0-1,.56,2.16,2.16,0,0,0-.28,1.14,2.13,2.13,0,0,0,.28,1.12,1.06,1.06,0,0,0,1,.56,1,1,0,0,0,.94-.57A2.12,2.12,0,0,0,52,11.07Z"/><path class="a" d="M58.77,13.43h-1v-2.7q0-1.25-1-1.25a1,1,0,0,0-.76.34,1.22,1.22,0,0,0-.29.81v2.8h-1V10.07q0-.62,0-1.35h.92l0,.74h0a1.51,1.51,0,0,1,.54-.57,1.77,1.77,0,0,1,1-.27,1.5,1.5,0,0,1,1.1.43,2.07,2.07,0,0,1,.54,1.56Z"/><path class="a" d="M63.5,12.08A1.3,1.3,0,0,1,63,13.13a2.05,2.05,0,0,1-1.34.4,2.73,2.73,0,0,1-1.37-.32l.22-.78a2.19,2.19,0,0,0,1.15.33q.81,0,.81-.59a.58.58,0,0,0-.17-.43,1.83,1.83,0,0,0-.62-.33q-1.26-.47-1.26-1.36a1.3,1.3,0,0,1,.47-1,1.81,1.81,0,0,1,1.23-.41,2.35,2.35,0,0,1,1.19.28l-.22.75a1.85,1.85,0,0,0-1-.27.78.78,0,0,0-.51.15.5.5,0,0,0-.18.4.48.48,0,0,0,.19.4,2.18,2.18,0,0,0,.64.32Q63.5,11.12,63.5,12.08Z"/><path class="a" d="M66.11,13.43h-1V8.72h1ZM67,6.74,65.83,8.15h-.73l.83-1.41Z"/><path class="a" d="M72.1,8.72c0,.38,0,.83,0,1.34v2.7a2.77,2.77,0,0,1-.68,2.13,2.51,2.51,0,0,1-1.75.56,3,3,0,0,1-1.58-.37l.24-.81a2.53,2.53,0,0,0,1.34.36q1.39,0,1.39-1.49v-.46h0a1.5,1.5,0,0,1-1.39.72,1.76,1.76,0,0,1-1.41-.65,2.45,2.45,0,0,1-.55-1.65,2.61,2.61,0,0,1,.64-1.83,1.88,1.88,0,0,1,1.44-.65,1.45,1.45,0,0,1,1.38.75h0l0-.65h.92ZM71,11.42v-.83a1.19,1.19,0,0,0-.3-.81,1,1,0,0,0-.78-.34,1.07,1.07,0,0,0-.88.45,1.9,1.9,0,0,0-.35,1.19,1.74,1.74,0,0,0,.32,1.1,1.06,1.06,0,0,0,.91.46,1,1,0,0,0,.63-.21,1.11,1.11,0,0,0,.39-.57A1.34,1.34,0,0,0,71,11.42Z"/><path class="a" d="M78,13.43h-.92L77,12.71h0a1.63,1.63,0,0,1-1.49.82,1.47,1.47,0,0,1-1.11-.44,2.3,2.3,0,0,1-.49-1.61V8.72h1v2.6q0,1.36.93,1.36a1,1,0,0,0,1-.68,1.1,1.1,0,0,0,.07-.4V8.72h1v3.36Q78,12.74,78,13.43Z"/><path class="a" d="M83.7,10.85a2.53,2.53,0,0,1,0,.48H80.52A1.37,1.37,0,0,0,81,12.4a1.56,1.56,0,0,0,1,.33,3.46,3.46,0,0,0,1.27-.22l.16.73a3.94,3.94,0,0,1-1.58.29,2.29,2.29,0,0,1-1.72-.64,2.38,2.38,0,0,1-.62-1.73,2.7,2.7,0,0,1,.58-1.77,2,2,0,0,1,1.65-.76,1.76,1.76,0,0,1,1.54.76A2.53,2.53,0,0,1,83.7,10.85Zm-1-.27a1.43,1.43,0,0,0-.2-.81.91.91,0,0,0-.83-.44,1,1,0,0,0-.84.43,1.57,1.57,0,0,0-.31.81Z"/><path class="a" d="M86.27,13.43h-1V6.56h1Z"/><path class="a" d="M92.44,11a2.59,2.59,0,0,1-.62,1.78,2.22,2.22,0,0,1-1.73.72,2.1,2.1,0,0,1-1.65-.69,2.51,2.51,0,0,1-.61-1.74,2.56,2.56,0,0,1,.64-1.79,2.2,2.2,0,0,1,1.71-.7,2.16,2.16,0,0,1,1.67.69A2.49,2.49,0,0,1,92.44,11Zm-1.09,0A2.13,2.13,0,0,0,91.07,10a1,1,0,0,0-.94-.56,1,1,0,0,0-1,.56,2.16,2.16,0,0,0-.28,1.14,2.13,2.13,0,0,0,.28,1.12,1.06,1.06,0,0,0,1,.56,1,1,0,0,0,.94-.57A2.11,2.11,0,0,0,91.35,11.07Z"/><path class="a" d="M100.69,10.85a2.53,2.53,0,0,1,0,.48H97.51A1.37,1.37,0,0,0,98,12.4a1.56,1.56,0,0,0,1,.33,3.47,3.47,0,0,0,1.27-.22l.16.73a4,4,0,0,1-1.58.29,2.28,2.28,0,0,1-1.72-.64,2.38,2.38,0,0,1-.62-1.73,2.7,2.7,0,0,1,.58-1.77,2,2,0,0,1,1.65-.76,1.75,1.75,0,0,1,1.54.76A2.52,2.52,0,0,1,100.69,10.85Zm-1-.27a1.41,1.41,0,0,0-.2-.81.92.92,0,0,0-.83-.44,1,1,0,0,0-.83.43,1.59,1.59,0,0,0-.31.81Z"/><path class="a" d="M106.31,13.43h-1v-2.7q0-1.25-1-1.25a.94.94,0,0,0-.76.34,1.21,1.21,0,0,0-.29.81v2.8h-1V10.07q0-.62,0-1.35h.92l0,.74h0a1.53,1.53,0,0,1,.54-.57,1.77,1.77,0,0,1,1-.27,1.5,1.5,0,0,1,1.1.43,2.07,2.07,0,0,1,.54,1.56Z"/><path class="a" d="M114.87,10.85a2.53,2.53,0,0,1,0,.48h-3.14a1.37,1.37,0,0,0,.46,1.07,1.56,1.56,0,0,0,1,.33,3.46,3.46,0,0,0,1.27-.22l.16.73a3.94,3.94,0,0,1-1.58.29,2.29,2.29,0,0,1-1.72-.64,2.38,2.38,0,0,1-.62-1.73,2.7,2.7,0,0,1,.58-1.77,2,2,0,0,1,1.65-.76,1.76,1.76,0,0,1,1.54.76A2.53,2.53,0,0,1,114.87,10.85Zm-1-.27a1.43,1.43,0,0,0-.2-.81.92.92,0,0,0-.83-.44,1,1,0,0,0-.84.43,1.57,1.57,0,0,0-.31.81Z"/><path class="a" d="M117.44,13.43h-1V6.56h1Z"/><path class="a" d="M130,.8A4.2,4.2,0,0,1,134.2,5V35a4.2,4.2,0,0,1-4.2,4.2H5A4.2,4.2,0,0,1,.8,35V5A4.2,4.2,0,0,1,5,.8H130m0-.8H5A5,5,0,0,0,0,5V35a5,5,0,0,0,5,5H130a5,5,0,0,0,5-5V5a5,5,0,0,0-5-5Z"/></svg>